<?xml version="1.0" standalone="no"?>
<!DOCTYPE svg PUBLIC "-//W3C//DTD SVG 20010904//EN"
 "http://www.w3.org/TR/2001/REC-SVG-20010904/DTD/svg10.dtd">
<svg version="1.0" xmlns="http://www.w3.org/2000/svg"
 width="260.000000pt" height="260.000000pt" viewBox="0 0 260.000000 260.000000"
 preserveAspectRatio="xMidYMid meet">
<metadata>
Created by potrace 1.11, written by Peter Selinger 2001-2013
</metadata>
<g transform="translate(0.000000,260.000000) scale(0.100000,-0.100000)"
fill="#000000" stroke="none">
<path d="M0 1300 l0 -1300 1300 0 1300 0 0 1300 0 1300 -1300 0 -1300 0 0
-1300z m1863 541 c16 -12 17 -74 17 -703 0 -454 -4 -696 -10 -709 -20 -37 -63
-49 -175 -49 -114 0 -155 11 -192 52 -42 45 -553 1021 -553 1055 0 6 -3 14 -7
16 -5 3 -7 -244 -5 -547 2 -509 1 -554 -14 -567 -24 -20 -214 -20 -238 0 -15
13 -16 69 -14 708 l3 695 33 29 c32 29 34 29 155 29 150 0 187 -10 228 -58 35
-42 309 -551 438 -813 l86 -177 -3 494 c-3 271 -2 504 2 518 3 14 17 29 33 35
40 15 196 9 216 -8z"/>
</g>
</svg>
